<svg viewBox="0 0 16 16" fill="none" xmlns="http://www.w3.org/2000/svg">
<path d="M7.97 15.94C10.0797 15.9269 12.0993 15.083 13.5912 13.5912C15.083 12.0993 15.9269 10.0797 15.94 7.97C15.9243 5.85936 15.0782 3.83977 13.5847 2.34822C12.0913 0.856664 10.0707 0.013084 7.96 0C5.85281 0.0183114 3.83727 0.864199 2.34815 2.3552C0.859022 3.84619 0.0156659 5.86279 0 7.97C0.0156998 10.0789 0.860435 12.097 2.35171 13.5883C3.84299 15.0796 5.86108 15.9243 7.97 15.94ZM6.9 11.98C6.63 11.98 6.42 11.86 6.2 11.59L3.95 8.81C3.8309 8.66941 3.76071 8.49394 3.75 8.31C3.75 7.94 4.05 7.66 4.4 7.66C4.62 7.66 4.81 7.74 5 7.98L6.86 10.4L10.49 4.58C10.64 4.34 10.85 4.22 11.06 4.22C11.4 4.22 11.73 4.45 11.73 4.82C11.73 4.99 11.63 5.18 11.53 5.34L7.56 11.59C7.38 11.85 7.16 11.98 6.9 11.98Z" fill="black"/>
</svg>
