<svg viewBox="0 0 18 16" fill="none" xmlns="http://www.w3.org/2000/svg">
<path d="M10.6 11.5H4.5V4.5H10.6C11.0971 4.5 11.5 4.09706 11.5 3.6V1.33072L17.3356 8L11.5 14.6693V12.4C11.5 11.9029 11.0971 11.5 10.6 11.5Z" fill="black" stroke="black" stroke-linecap="round"/>
<path d="M3 2H8C8.55228 2 9 1.55228 9 1C9 0.447715 8.55229 0 8 0H1C0.447715 0 0 0.447715 0 1V15C0 15.5523 0.447715 16 1 16H8C8.55229 16 9 15.5523 9 15C9 14.4477 8.55229 14 8 14H3C2.44772 14 2 13.5523 2 13V3C2 2.44772 2.44772 2 3 2Z" fill="black"/>
</svg>
