<svg viewBox="0 0 22 21" fill="none" xmlns="http://www.w3.org/2000/svg">
<path fill-rule="evenodd" clip-rule="evenodd" d="M18.4172 0.658065C17.6361 -0.122985 16.3698 -0.122981 15.5888 0.658066L1.79556 14.4513C1.47589 14.7709 1.27395 15.1895 1.22268 15.6386L0.949287 18.0333C0.803351 19.3116 1.88492 20.3932 3.16324 20.2473L5.55794 19.9739C6.0071 19.9226 6.42564 19.7207 6.7453 19.401L20.5385 5.60781C21.3195 4.82676 21.3195 3.56043 20.5385 2.77939L18.4172 0.658065ZM17.003 2.07228L17.003 2.07228L19.1243 4.1936L17.7101 5.60781L15.5888 3.48649L17.003 2.07228ZM14.1745 4.90071L3.20977 15.8655L2.93638 18.2602L5.33109 17.9868L16.2959 7.02203L14.1745 4.90071Z" fill="black"/>
</svg>
