<svg viewBox="0 0 12 12" fill="none" xmlns="http://www.w3.org/2000/svg">
<path fill-rule="evenodd" clip-rule="evenodd" d="M1.85711 0.442887C1.46658 0.0523628 0.833419 0.0523628 0.442895 0.442887C0.0523704 0.833411 0.0523704 1.46658 0.442895 1.8571L4.59133 6.00554L0.442895 10.154C0.0523704 10.5445 0.0523704 11.1777 0.442895 11.5682C0.833419 11.9587 1.46658 11.9587 1.85711 11.5682L6.00555 7.41975L10.154 11.5682C10.5445 11.9587 11.1777 11.9587 11.5682 11.5682C11.9587 11.1777 11.9587 10.5445 11.5682 10.154L7.41976 6.00554L11.5682 1.85711C11.9587 1.46659 11.9587 0.833422 11.5682 0.442898C11.1777 0.0523735 10.5445 0.0523733 10.154 0.442898L6.00555 4.59132L1.85711 0.442887Z" fill="black"/>
</svg>
